<?xml version="1.0" encoding="utf-8"?>
<!-- Generator: Adobe Illustrator 23.0.1, SVG Export Plug-In . SVG Version: 6.00 Build 0)  -->
<svg version="1.1" id="Capa_1" xmlns="http://www.w3.org/2000/svg" xmlns:xlink="http://www.w3.org/1999/xlink" x="0px" y="0px"
	 viewBox="0 0 512 223" style="enable-background:new 0 0 512 223;" xml:space="preserve">
<style type="text/css">
	.st0{fill:#FFFFFF;}
</style>
<g>
	<path class="st0" d="M35.3,194.1H3v-173h32.3V194.1z"/>
	<path class="st0" d="M166.1,52.5c-1,1.7-2,2.9-3,3.7c-1.1,0.8-2.4,1.1-4,1.1c-1.7,0-3.5-0.6-5.4-1.9c-2-1.2-4.3-2.6-7-4.1
		c-2.7-1.5-5.9-2.9-9.5-4.1c-3.6-1.2-7.9-1.9-12.9-1.9c-4.5,0-8.4,0.5-11.7,1.6c-3.4,1.1-6.2,2.6-8.4,4.5c-2.3,1.9-4,4.2-5.1,6.9
		c-1.1,2.7-1.7,5.6-1.7,8.8c0,4.1,1.1,7.5,3.4,10.2c2.3,2.7,5.3,5,9,6.9c3.7,1.9,8,3.6,12.8,5.1c4.8,1.5,9.7,3.1,14.7,4.8
		c5,1.7,9.9,3.7,14.7,6c4.8,2.3,9.1,5.1,12.8,8.6c3.7,3.5,6.8,7.7,9,12.7s3.4,11.1,3.4,18.3c0,7.8-1.3,15.1-4,22
		c-2.7,6.8-6.6,12.8-11.7,17.8c-5.1,5.1-11.4,9.1-18.8,12c-7.4,2.9-15.9,4.4-25.5,4.4c-5.5,0-10.9-0.5-16.3-1.6
		c-5.3-1.1-10.5-2.6-15.4-4.6c-4.9-2-9.5-4.4-13.8-7.2c-4.3-2.8-8.1-5.9-11.5-9.3l9.5-15.4c0.8-1.1,1.8-2.1,3.1-2.8
		c1.3-0.7,2.6-1.1,4.1-1.1c2,0,4.1,0.8,6.5,2.5c2.3,1.6,5.1,3.4,8.3,5.4c3.2,2,6.9,3.8,11.2,5.4c4.3,1.6,9.4,2.5,15.4,2.5
		c9.2,0,16.3-2.2,21.3-6.5c5-4.3,7.5-10.6,7.5-18.7c0-4.5-1.1-8.2-3.4-11.1c-2.3-2.9-5.3-5.3-9-7.2c-3.8-2-8-3.6-12.8-5
		c-4.8-1.4-9.7-2.8-14.6-4.4c-4.9-1.6-9.8-3.5-14.6-5.7c-4.8-2.2-9.1-5.1-12.8-8.7c-3.8-3.6-6.8-8.1-9-13.5
		c-2.3-5.4-3.4-12-3.4-19.9c0-6.3,1.3-12.4,3.8-18.4c2.5-6,6.2-11.3,10.9-15.9c4.8-4.6,10.7-8.3,17.7-11.1c7-2.8,15.1-4.2,24.2-4.2
		c10.2,0,19.6,1.6,28.2,4.8c8.6,3.2,16,7.7,22,13.4L166.1,52.5z"/>
	<path class="st0" d="M264.8,21.1c11.3,0,21,1.1,29.1,3.2c8.1,2.2,14.7,5.2,19.8,9.2c5.1,4,8.9,8.8,11.3,14.5
		c2.4,5.7,3.6,12,3.6,19.1c0,4.1-0.6,8-1.8,11.7c-1.2,3.7-3,7.2-5.6,10.4c-2.5,3.2-5.7,6.2-9.6,8.8c-3.9,2.6-8.5,4.9-13.8,6.7
		c23.8,5.3,35.7,18.2,35.7,38.5c0,7.3-1.4,14.1-4.2,20.3c-2.8,6.2-6.9,11.6-12.2,16.1s-11.9,8-19.7,10.6c-7.8,2.6-16.8,3.8-26.8,3.8
		h-65.3v-173H264.8z M237.4,45.9v50H263c11,0,19.3-2,24.9-6c5.6-4,8.4-10.3,8.4-19c0-9-2.6-15.4-7.7-19.3
		c-5.1-3.8-13.1-5.7-23.9-5.7H237.4z M269.9,168.9c6,0,11-0.7,15.1-2.2c4.1-1.4,7.3-3.4,9.8-5.7c2.4-2.4,4.2-5.2,5.3-8.4
		c1.1-3.2,1.6-6.6,1.6-10.2c0-3.7-0.6-7.1-1.8-10.1c-1.2-3-3.1-5.5-5.6-7.7c-2.6-2.1-5.8-3.7-9.9-4.8c-4-1.1-8.9-1.7-14.5-1.7h-32.4
		v50.7H269.9z"/>
	<path class="st0" d="M508.7,21.1v173h-16.5c-2.6,0-4.7-0.4-6.4-1.3c-1.7-0.8-3.4-2.3-5-4.2L390.4,73.2c0.5,5.3,0.7,10.1,0.7,14.6
		v106.3h-28.4v-173h16.9c1.4,0,2.5,0.1,3.5,0.2c1,0.1,1.9,0.4,2.6,0.7c0.7,0.4,1.5,0.9,2.2,1.6c0.7,0.7,1.5,1.6,2.4,2.7L481.1,142
		c-0.2-2.8-0.4-5.5-0.6-8.2c-0.2-2.7-0.2-5.2-0.2-7.5V21.1H508.7z"/>
</g>
</svg>
