<?xml version="1.0" encoding="utf-8"?>
<!-- Generator: Adobe Illustrator 23.0.1, SVG Export Plug-In . SVG Version: 6.00 Build 0)  -->
<svg version="1.1" id="Capa_1" xmlns="http://www.w3.org/2000/svg" xmlns:xlink="http://www.w3.org/1999/xlink" x="0px" y="0px"
	 viewBox="0 0 16 16" style="enable-background:new 0 0 16 16;" xml:space="preserve">
<style type="text/css">
	.st0{fill:#FFFFFF;}
</style>
<g>
	<path class="st0" d="M2.1,9h-2H0v5l1.5-1.4C2.9,14.7,5.3,16,8,16c4.1,0,7.4-3.1,7.9-7h-2c-0.5,2.8-2.9,5-5.9,5c-2.1,0-4-1.1-5-2.7
		L5.4,9H2.1z"/>
	<path class="st0" d="M8,0C3.9,0,0.6,3.1,0.1,7h2C2.6,4.2,5,2,8,2c2.2,0,4.1,1.2,5.1,2.9L11,7h2h0.9h2H16V2l-1.4,1.4
		C13.1,1.4,10.7,0,8,0z"/>
</g>
</svg>
